<svg width="38" height="38" viewBox="0 0 38 38" fill="none" xmlns="http://www.w3.org/2000/svg">
<path fill-rule="evenodd" clip-rule="evenodd" d="M4.50523 1.26361C4.49368 1.12729 4.45539 0.994584 4.39255 0.873064C4.32971 0.751544 4.24355 0.643593 4.13898 0.555375C4.03442 0.467158 3.9135 0.400402 3.78313 0.35892C3.65277 0.317438 3.5155 0.302042 3.37919 0.313611L1.30315 0.490695C1.02803 0.514025 0.773438 0.645624 0.595304 0.856572C0.417169 1.06752 0.33007 1.34056 0.353146 1.61569L0.695854 5.6459C0.545996 5.7504 0.426256 5.89247 0.348651 6.05787C0.271045 6.22326 0.238304 6.40615 0.253711 6.5882C0.269119 6.77024 0.332134 6.94503 0.436433 7.09503C0.540733 7.24503 0.682648 7.36495 0.847937 7.44278L1.21252 11.7365C1.22407 11.8729 1.26239 12.0057 1.3253 12.1273C1.3882 12.2489 1.47446 12.3569 1.57914 12.4452C1.68382 12.5334 1.80486 12.6001 1.93535 12.6415C2.06583 12.683 2.2032 12.6982 2.3396 12.6865L4.41565 12.5094C4.69057 12.4859 4.9449 12.3541 5.12282 12.1432C5.30073 11.9323 5.38769 11.6594 5.3646 11.3844L4.98023 6.85736C5.51044 6.76257 6.03231 6.67194 6.54585 6.58653C6.65627 8.30528 6.97294 11.2209 7.5594 13.9667C7.93335 15.7167 8.44585 17.5438 9.15835 18.9813C9.51252 19.698 9.97294 20.4313 10.5823 21.0105C11.1219 21.523 11.85 21.9761 12.75 22.0949V26.6074C12.6371 26.5668 12.5243 26.5262 12.4115 26.4855L12.1792 26.4022C11.1323 26.0272 10.0677 25.6459 9.25627 25.4407C8.86148 25.3407 8.2646 25.2105 7.67919 25.2626C7.17946 25.3008 6.70268 25.4881 6.31044 25.8001C6.04238 26.0185 5.82669 26.2942 5.67923 26.607C5.53177 26.9197 5.4563 27.2616 5.45835 27.6074C5.45835 28.4647 5.75106 30.6699 6.00002 32.4313C6.15353 33.5187 6.31325 34.6052 6.47919 35.6907L6.51252 35.9084L6.5219 35.9657L6.52398 35.9803V35.9855L8.58335 35.6667L6.52502 35.9865C6.60386 36.4922 6.8661 36.9512 7.26171 37.2759C7.65731 37.6006 8.15861 37.7684 8.66998 37.7471C9.18134 37.7259 9.66699 37.5171 10.0343 37.1607C10.4016 36.8043 10.6249 36.3251 10.6615 35.8146L11.0469 30.423C12.2031 30.8376 13.5552 31.3157 14.8886 31.6907C16.2146 32.0636 17.6698 32.3782 19 32.3782C20.3302 32.3782 21.7854 32.0636 23.1125 31.6907C24.4354 31.3188 25.774 30.8449 26.925 30.4334L27.3396 35.8261C27.3791 36.3353 27.6043 36.8121 27.9724 37.1662C28.3404 37.5202 28.8256 37.7268 29.3359 37.7465C29.8462 37.7663 30.346 37.598 30.7404 37.2736C31.1347 36.9491 31.3962 36.4911 31.475 35.9865L29.4167 35.6667L31.4761 35.9855V35.9792L31.4792 35.9646L31.4875 35.9074L31.5209 35.6886C31.6866 34.6034 31.8464 33.5173 32 32.4303C32.25 30.6688 32.5417 28.4636 32.5417 27.6074C32.5417 26.9928 32.3021 26.2969 31.6906 25.799C31.2981 25.4868 30.8209 25.2996 30.3209 25.2615C29.7354 25.2094 29.1386 25.3397 28.7448 25.4386C27.9323 25.6449 26.8688 26.0261 25.8219 26.4011L25.5896 26.4844L25.25 26.6063V22.099C27.2188 21.8792 28.4115 20.2834 29.0698 19.0136C29.8313 17.5428 30.3292 15.6834 30.6667 13.924C31.1959 11.1751 31.4052 8.28861 31.4729 6.59903C31.9802 6.68236 32.4959 6.7709 33.0198 6.86361L32.6354 11.3834C32.6124 11.6585 32.6995 11.9316 32.8776 12.1425C33.0557 12.3535 33.3103 12.4851 33.5854 12.5084L35.6615 12.6855C35.9366 12.7086 36.2097 12.6215 36.4206 12.4433C36.6315 12.2652 36.7631 12.0106 36.7865 11.7355L37.1521 7.44174C37.3179 7.36438 37.4603 7.24465 37.565 7.09463C37.6697 6.94461 37.733 6.76962 37.7484 6.58733C37.7638 6.40504 37.7309 6.22191 37.6529 6.05643C37.5749 5.89095 37.4546 5.74898 37.3042 5.64486L37.6479 1.61465C37.671 1.33935 37.5838 1.06617 37.4054 0.855188C37.2271 0.64421 36.9722 0.512723 36.6969 0.489653L34.6219 0.31257C34.4856 0.301 34.3483 0.316396 34.218 0.357878C34.0876 0.39936 33.9667 0.466116 33.8621 0.554334C33.7575 0.642551 33.6714 0.750502 33.6085 0.872022C33.5457 0.993542 33.5074 1.12625 33.4959 1.26257L33.1969 4.77924C32.546 4.66474 31.8943 4.55536 31.2417 4.45111C31.086 4.16875 30.8669 3.92639 30.6016 3.7431C30.3363 3.55981 30.0321 3.44061 29.7129 3.39486C29.3937 3.34912 29.0683 3.37809 28.7622 3.4795C28.4561 3.5809 28.1777 3.75197 27.949 3.97924C21.6188 3.18028 16.2594 3.18132 10.0406 3.96882C9.81191 3.74504 9.5347 3.57695 9.23051 3.4776C8.92632 3.37826 8.60334 3.35032 8.28661 3.39595C7.96988 3.44159 7.66792 3.55957 7.40416 3.74075C7.14039 3.92193 6.9219 4.16144 6.76565 4.44069C6.12294 4.54278 5.46981 4.65319 4.80315 4.77194L4.50523 1.26361ZM11.6334 13.0969C11.1486 10.7527 10.8311 8.37688 10.6834 5.98757C16.4448 5.28653 21.4604 5.28653 27.324 6.00215C27.2854 7.38965 27.1073 10.3709 26.575 13.1376C26.2625 14.7636 25.8563 16.1594 25.3698 17.098C25.0386 17.7365 24.8125 17.9157 24.7365 17.9584H13.4209C13.3 17.8324 13.1125 17.5772 12.8917 17.1313C12.4104 16.1594 11.9834 14.7324 11.6334 13.0969ZM23.6875 11.1876C23.6875 12.4308 23.1937 13.6231 22.3146 14.5021C21.4355 15.3812 20.2432 15.8751 19 15.8751C17.7568 15.8751 16.5645 15.3812 15.6855 14.5021C14.8064 13.6231 14.3125 12.4308 14.3125 11.1876C14.3125 9.94437 14.8064 8.75208 15.6855 7.87301C16.5645 6.99393 17.7568 6.50007 19 6.50007C20.2432 6.50007 21.4355 6.99393 22.3146 7.87301C23.1937 8.75208 23.6875 9.94437 23.6875 11.1876Z" fill="#F8F8F8"/>
</svg>
